<?xml version="1.0" encoding="utf-8"?>
<!-- Generator: Adobe Illustrator 24.1.1, SVG Export Plug-In . SVG Version: 6.00 Build 0)  -->
<svg version="1.1" id="Layer_1" xmlns="http://www.w3.org/2000/svg" xmlns:xlink="http://www.w3.org/1999/xlink" x="0px" y="0px"
	 viewBox="0 0 512 512" style="enable-background:new 0 0 512 512;" xml:space="preserve">
<style type="text/css">
	.st0{fill:#430098;}
</style>
<g>
	<path class="st0" d="M440.3,0c25.2,0,45.7,20.2,46.1,45.3l0,0.8v419.8c0,25.2-20.2,45.7-45.3,46.1l-0.8,0H71.7
		c-25.2,0-45.7-20.2-46.1-45.3l0-0.8V46.1C25.6,20.9,45.8,0.4,70.9,0l0.8,0H440.3z M440.3,25.6H71.7c-11.1,0-20.2,8.9-20.5,20l0,0.5
		v419.8c0,11.1,8.9,20.2,20,20.5l0.5,0h368.6c11.1,0,20.2-8.9,20.5-20l0-0.5V46.1C460.8,34.8,451.6,25.6,440.3,25.6z M140.8,332.8
		l57.6,51.2l-57.6,51.2V332.8z M192,76.8v145.4c25.6-8.3,61.3-17.4,96-17.4c31.6,0,50.6,12.4,60.9,22.9c21.8,22,22.3,50.1,22.3,53.8
		l0,0.1l0,153.6H320V282.3c-0.2-11.9-6-26.3-32-26.3c-51.5,0-109.3,25.7-111,26.4l0,0l-36.2,16.4v-222H192z M371.2,76.8
		c-3.5,29.1-15.2,57-38.4,83.2h-51.2c20.1-26.4,32.8-54.2,38.4-83.2H371.2z"/>
</g>
</svg>
